<?xml version="1.0" encoding="UTF-8" standalone="no"?>
<svg
   xmlns:dc="http://purl.org/dc/elements/1.1/"
   xmlns:cc="http://creativecommons.org/ns#"
   xmlns:rdf="http://www.w3.org/1999/02/22-rdf-syntax-ns#"
   xmlns:svg="http://www.w3.org/2000/svg"
   xmlns="http://www.w3.org/2000/svg"
   xmlns:sodipodi="http://sodipodi.sourceforge.net/DTD/sodipodi-0.dtd"
   xmlns:inkscape="http://www.inkscape.org/namespaces/inkscape"
   version="1.1"
   x="0px"
   y="0px"
   width="18.008789"
   height="18"
   viewBox="0 0 18.008789 18"
   enable-background="new 0 0 100 100"
   xml:space="preserve"
   id="svg2"
   inkscape:version="0.91 r13725"
   sodipodi:docname="blog.svg"><metadata
     id="metadata12"><rdf:RDF><cc:Work
         rdf:about=""><dc:format>image/svg+xml</dc:format><dc:type
           rdf:resource="http://purl.org/dc/dcmitype/StillImage" /><dc:title></dc:title></cc:Work></rdf:RDF></metadata><defs
     id="defs10" /><sodipodi:namedview
     pagecolor="#ffffff"
     bordercolor="#666666"
     borderopacity="1"
     objecttolerance="10"
     gridtolerance="10"
     guidetolerance="10"
     inkscape:pageopacity="0"
     inkscape:pageshadow="2"
     inkscape:window-width="862"
     inkscape:window-height="480"
     id="namedview8"
     showgrid="false"
     inkscape:zoom="2.36"
     inkscape:cx="22.940678"
     inkscape:cy="48.99024"
     inkscape:window-x="779"
     inkscape:window-y="195"
     inkscape:window-maximized="0"
     inkscape:current-layer="svg2"
     fit-margin-top="0"
     fit-margin-left="0"
     fit-margin-right="0"
     fit-margin-bottom="0" /><g
     id="Captions"
     transform="matrix(0.16883239,0,0,0.16883239,0.56277466,0.56277466)" /><g
     id="Your_Icon"
     transform="matrix(0.16883239,0,0,0.16883239,0.56277466,0.56277466)"
     style="fill:none;stroke:#222222;stroke-width:10.66666698;stroke-miterlimit:4;stroke-dasharray:none;stroke-opacity:1"><path
       d="M 88.143,75.366 C 94.3,67.682 98,58.116 98,47.706 98,22.464 76.508,2 50,2 23.492,2 2,22.464 2,47.706 c 0,25.236 21.492,45.7 48,45.7 4.925,0 9.676,-0.713 14.149,-2.025 C 78.011,95.305 97.159,98 97.159,98 93.584,96.778 89.867,82.742 88.143,75.366 Z"
       id="path6"
       inkscape:connector-curvature="0"
       style="fill:none;stroke:#222222;stroke-width:10.66666698;stroke-miterlimit:4;stroke-dasharray:none;stroke-opacity:1" /></g></svg>