<?xml version="1.0" encoding="UTF-8" standalone="no"?>
<svg
   xmlns:dc="http://purl.org/dc/elements/1.1/"
   xmlns:cc="http://creativecommons.org/ns#"
   xmlns:rdf="http://www.w3.org/1999/02/22-rdf-syntax-ns#"
   xmlns:svg="http://www.w3.org/2000/svg"
   xmlns="http://www.w3.org/2000/svg"
   xmlns:sodipodi="http://sodipodi.sourceforge.net/DTD/sodipodi-0.dtd"
   xmlns:inkscape="http://www.inkscape.org/namespaces/inkscape"
   version="1.1"
   id="Layer_1"
   x="0px"
   y="0px"
   width="15.702426"
   height="18"
   viewBox="0 0 15.702426 18"
   enable-background="new 0 0 36 30"
   xml:space="preserve"
   inkscape:version="0.91 r13725"
   sodipodi:docname="contactos.svg"><metadata
     id="metadata35"><rdf:RDF><cc:Work
         rdf:about=""><dc:format>image/svg+xml</dc:format><dc:type
           rdf:resource="http://purl.org/dc/dcmitype/StillImage" /><dc:title></dc:title></cc:Work></rdf:RDF></metadata><defs
     id="defs33" /><sodipodi:namedview
     pagecolor="#ffffff"
     bordercolor="#666666"
     borderopacity="1"
     objecttolerance="10"
     gridtolerance="10"
     guidetolerance="10"
     inkscape:pageopacity="0"
     inkscape:pageshadow="2"
     inkscape:window-width="1066"
     inkscape:window-height="480"
     id="namedview31"
     showgrid="false"
     fit-margin-top="0"
     fit-margin-left="0"
     fit-margin-right="0"
     fit-margin-bottom="0"
     inkscape:zoom="5.5625735"
     inkscape:cx="-1.8638427"
     inkscape:cy="6.078096"
     inkscape:window-x="643"
     inkscape:window-y="105"
     inkscape:window-maximized="0"
     inkscape:current-layer="Layer_1" /><polygon
     display="none"
     points="13.839,13.404 12.704,13.226 12.704,15.152 13.839,15.304 "
     id="polygon19"
     style="display:none"
     transform="translate(-3.5084227,-9.4750999)" /><polygon
     display="none"
     points="22.408,20.814 23.178,20.977 23.555,20.818 23.555,18.861 23.177,19.02 22.408,17.948 "
     id="polygon21"
     style="display:none"
     transform="translate(-3.5084227,-9.4750999)" /><polygon
     display="none"
     points="11.111,13.194 4.7,15.914 5.843,17.629 11.584,15.003 12.704,15.152 12.704,13.226 11.7,13.067 "
     id="polygon23"
     style="display:none"
     transform="translate(-3.5084227,-9.4750999)" /><polygon
     points="23.555,18.294 23.555,18.094 22.408,15.322 22.408,17.381 23.177,18.452 "
     id="polygon3"
     transform="matrix(0.52548473,0,0,0.52548473,-1.7215274,3.4654662)"
     style="fill:none" /><polygon
     points="23.555,20.489 23.555,20.251 23.178,20.409 "
     id="polygon5"
     transform="matrix(0.52548473,0,0,0.52548473,-1.7215274,3.4654662)"
     style="fill:none" /><polygon
     points="11.111,12.627 11.7,12.5 12.704,12.659 12.704,6.308 4.126,7.841 4.126,25.465 12.704,26.976 12.704,14.585 11.584,14.436 5.843,17.062 4.7,15.347 "
     id="polygon7"
     transform="matrix(0.52548473,0,0,0.52548473,-1.9053878,3.5114314)"
     style="fill:none;stroke:#000000;stroke-width:1.00007546;stroke-miterlimit:4;stroke-dasharray:none;stroke-opacity:1" /><path
     d="m 13.379764,7.7582205 -2.120469,5.1139075 2.69994,-1.122961 0.276544,0.970154 -3.303723,1.438795 0,2.677361 4.507608,0.794008 0,-10.8607187 -1.851808,0.3310546 c 0,0 -0.110877,0.4529352 -0.208092,0.6583996 z"
     id="path9"
     inkscape:connector-curvature="0"
     style="fill:none;stroke:#000000;stroke-width:0.52552432;stroke-miterlimit:4;stroke-dasharray:none;stroke-opacity:1"
     sodipodi:nodetypes="cccccccccc" /><polygon
     points="22.368,20.239 18.414,15.347 13.839,14.737 13.839,26.976 22.408,25.465 22.408,20.247 "
     id="polygon11"
     transform="matrix(0.52548473,0,0,0.52548473,-1.7215274,3.4654662)"
     style="fill:none;stroke:#000000;stroke-opacity:1" /><path
     d="m 8.8559555,10.929977 1.1631055,1.634467 0.03447,-1.0475 -1.6384617,-3.9632068 0.0047,0 c -0.032577,-0.087755 -0.051496,-0.181292 -0.075143,-0.273252 l -2.7940028,-0.4997359 0,3.4308897 2.9910595,0.470834 0.3142398,0.247504 z"
     id="path13"
     inkscape:connector-curvature="0"
     style="fill:none;stroke:#000000;stroke-width:0.52552432;stroke-miterlimit:4;stroke-dasharray:none;stroke-opacity:1"
     sodipodi:nodetypes="ccccccccccc" /><ellipse
     cx="10.807605"
     cy="6.5584688"
     rx="0.86704987"
     ry="0.85916752"
     id="ellipse15"
     style="fill:none" /><path
     d="M 10.848398,0 C 8.5422138,0 6.6743415,1.8532635 6.6743415,4.1380923 c 0,0.5147326 0.095518,1.0092362 0.2697264,1.4632795 l -0.00998,0 0.1494664,0.3483994 2.1533369,5.0506748 1.2879538,3.022089 0.318059,0.749623 3.76047,-8.8268814 c 0.05732,-0.1146399 0.08315,-0.2416326 0.12924,-0.3607623 0.17195,-0.4529205 0.289957,-0.9339368 0.289957,-1.4452975 C 15.023623,1.8532635 13.155766,0 10.848459,0 Z M 8.9928864,4.1380923 c 0,-1.0159798 0.8294162,-1.837529 1.8532616,-1.837529 1.024971,0 1.855511,0.8215492 1.855511,1.837529 0,1.0137308 -0.83054,1.8375289 -1.855511,1.8375289 -1.0204738,0 -1.8532616,-0.8237981 -1.8532616,-1.8375289 z"
     id="path17"
     inkscape:connector-curvature="0" /><polygon
     points="23.559,20.489 23.555,20.489 23.555,20.489 "
     id="polygon25"
     transform="matrix(0.52548473,0,0,0.52548473,-1.7215274,3.4654662)" /><polygon
     display="none"
     points="23.555,18.861 23.555,20.818 29.842,18.199 29.271,16.484 24.134,18.621 23.836,19.342 23.626,18.833 "
     id="polygon27"
     style="display:none"
     transform="translate(-3.5084227,-9.4750999)" /><polygon
     display="none"
     points="22.408,17.948 20.129,14.772 19.531,14.3 13.839,13.404 13.839,15.304 18.414,15.914 22.368,20.807 22.408,20.814 "
     id="polygon29"
     style="display:none"
     transform="translate(-3.5084227,-9.4750999)" /></svg>