<?xml version="1.0" encoding="UTF-8" standalone="no"?>
<svg
   xmlns:dc="http://purl.org/dc/elements/1.1/"
   xmlns:cc="http://creativecommons.org/ns#"
   xmlns:rdf="http://www.w3.org/1999/02/22-rdf-syntax-ns#"
   xmlns:svg="http://www.w3.org/2000/svg"
   xmlns="http://www.w3.org/2000/svg"
   xmlns:sodipodi="http://sodipodi.sourceforge.net/DTD/sodipodi-0.dtd"
   xmlns:inkscape="http://www.inkscape.org/namespaces/inkscape"
   version="1.1"
   id="Layer_1"
   x="0px"
   y="0px"
   width="17.591587"
   height="18"
   viewBox="0 0 17.591587 18"
   enable-background="new 0 0 100 100"
   xml:space="preserve"
   inkscape:version="0.91 r13725"
   sodipodi:docname="donate.svg"><metadata
     id="metadata13"><rdf:RDF><cc:Work
         rdf:about=""><dc:format>image/svg+xml</dc:format><dc:type
           rdf:resource="http://purl.org/dc/dcmitype/StillImage" /><dc:title></dc:title></cc:Work></rdf:RDF></metadata><defs
     id="defs11" /><sodipodi:namedview
     pagecolor="#ffffff"
     bordercolor="#666666"
     borderopacity="1"
     objecttolerance="10"
     gridtolerance="10"
     guidetolerance="10"
     inkscape:pageopacity="0"
     inkscape:pageshadow="2"
     inkscape:window-width="1168"
     inkscape:window-height="480"
     id="namedview9"
     showgrid="false"
     fit-margin-top="0"
     fit-margin-left="0"
     fit-margin-right="0"
     fit-margin-bottom="0"
     inkscape:zoom="2.36"
     inkscape:cx="36.563746"
     inkscape:cy="45"
     inkscape:window-x="698"
     inkscape:window-y="198"
     inkscape:window-maximized="0"
     inkscape:current-layer="Layer_1" /><g
     id="g3"
     transform="matrix(0.2,0,0,0.2,-1.2042,-1)"><path
       d="m 58.296,60.819 c 0.429,0.287 0.923,0.431 1.418,0.431 0.495,0 0.99,-0.144 1.418,-0.431 0.873,-0.582 21.401,-14.377 28.963,-28.234 1.871,-2.898 2.858,-6.245 2.858,-9.688 C 92.953,13.027 84.924,5 75.056,5 67.799,5 62.425,11.021 59.715,14.167 57.004,11.021 51.631,5 44.375,5 c -9.87,0 -17.899,8.027 -17.899,17.897 0,3.442 0.989,6.789 2.858,9.688 7.561,13.857 28.089,27.652 28.962,28.234 z M 44.375,10.112 c 5.112,0 9.388,4.975 11.687,7.648 1.428,1.662 2.215,2.579 3.653,2.579 1.438,0 2.225,-0.917 3.655,-2.579 2.297,-2.674 6.573,-7.648 11.687,-7.648 7.049,0 12.784,5.736 12.784,12.785 0,2.481 -0.721,4.896 -2.083,6.979 -0.038,0.059 -0.075,0.12 -0.108,0.182 C 79.81,40.845 64.464,52.227 59.716,55.581 54.968,52.227 39.624,40.845 33.782,30.058 33.748,29.996 33.712,29.935 33.674,29.876 32.312,27.793 31.591,25.379 31.591,22.897 31.589,15.849 37.324,10.112 44.375,10.112 Z"
       id="path5"
       inkscape:connector-curvature="0" /><path
       d="m 90.461,60.201 c -4.676,-2.739 -8.597,1.323 -10.074,2.851 -3.113,3.225 -6.863,6.413 -8.761,7.979 C 70.82,70.67 69.931,70.465 68.995,70.456 63.212,70.145 54.098,69.102 51.817,67.746 49.366,66.289 47.403,64.866 45.672,63.612 40.697,60.006 36.769,57.16 26.986,57.16 c -2.836,0 -5.322,0.786 -7.727,1.548 -2.468,0.782 -4.8,1.521 -7.613,1.521 -3.103,0 -5.625,2.522 -5.625,5.625 l 0,14.316 c 0,3.103 2.522,5.625 5.625,5.625 5.348,0 13.709,0.275 15.554,0.891 3.325,1.108 11.118,5.729 13.84,7.415 0.035,0.021 0.07,0.043 0.105,0.062 C 42.13,94.71 43.247,95 44.375,95 l 26,0 c 2.752,0 5.811,-2.546 6.872,-4.307 3.409,-5.657 15.633,-21.05 15.756,-21.205 0.11,-0.14 0.205,-0.29 0.284,-0.448 1.584,-3.168 0.368,-6.969 -2.826,-8.839 z m -20.087,29.684 -26,0 c -0.246,0 -0.489,-0.059 -0.706,-0.17 -0.961,-0.595 -10.421,-6.404 -14.851,-7.88 -3.294,-1.098 -14.883,-1.154 -17.171,-1.154 -0.283,0 -0.513,-0.229 -0.513,-0.511 l 0,-14.317 c 0,-0.284 0.23,-0.513 0.513,-0.513 3.602,0 6.554,-0.935 9.155,-1.758 2.222,-0.703 4.14,-1.31 6.185,-1.31 8.124,0 10.97,2.062 15.686,5.479 1.819,1.318 3.882,2.812 6.53,4.389 1.33,0.791 3.533,1.412 6.003,1.895 5.309,1.038 11.848,1.438 13.579,1.53 0.044,0.003 0.089,0.003 0.135,0.003 0.845,0 1.534,0.688 1.534,1.535 0,0.846 -0.688,1.532 -1.534,1.532 -0.045,0 -0.089,0.003 -0.135,0.005 l -19.348,1.018 c -1.541,-0.056 -5.177,-2.631 -7.592,-4.339 -0.625,-0.444 -1.235,-0.87 -1.835,-1.284 -1.307,-0.904 -2.555,-1.716 -3.697,-2.287 -1.263,-0.635 -2.798,-0.12 -3.429,1.143 -0.631,1.263 -0.12,2.799 1.143,3.431 1.317,0.657 3.04,1.878 4.865,3.17 3.835,2.716 7.459,5.282 10.597,5.282 0.045,0 0.091,-0.002 0.135,-0.003 L 68.996,83.75 c 3.631,-0.04 6.573,-3.008 6.573,-6.646 0,-0.823 -0.149,-1.611 -0.425,-2.341 2.051,-1.699 5.745,-4.866 8.924,-8.156 2.178,-2.256 3.047,-2.44 3.812,-1.992 0.678,0.398 1.175,1.175 0.913,1.954 -1.699,2.145 -12.558,15.899 -15.924,21.486 -0.449,0.74 -1.949,1.772 -2.495,1.83 z"
       id="path7"
       inkscape:connector-curvature="0" /></g></svg>