<?xml version="1.0" encoding="UTF-8" standalone="no"?>
<svg
   xmlns:dc="http://purl.org/dc/elements/1.1/"
   xmlns:cc="http://creativecommons.org/ns#"
   xmlns:rdf="http://www.w3.org/1999/02/22-rdf-syntax-ns#"
   xmlns:svg="http://www.w3.org/2000/svg"
   xmlns="http://www.w3.org/2000/svg"
   xmlns:sodipodi="http://sodipodi.sourceforge.net/DTD/sodipodi-0.dtd"
   xmlns:inkscape="http://www.inkscape.org/namespaces/inkscape"
   version="1.1"
   id="Layer_1"
   x="0px"
   y="0px"
   width="18"
   height="18"
   viewBox="0 0 72 72"
   enable-background="new 0 0 400 400"
   xml:space="preserve"
   inkscape:version="0.91 r13725"
   sodipodi:docname="facebook.svg"><metadata
     id="metadata9"><rdf:RDF><cc:Work
         rdf:about=""><dc:format>image/svg+xml</dc:format><dc:type
           rdf:resource="http://purl.org/dc/dcmitype/StillImage" /><dc:title></dc:title></cc:Work></rdf:RDF></metadata><defs
     id="defs7" /><sodipodi:namedview
     pagecolor="#ffffff"
     bordercolor="#666666"
     borderopacity="1"
     objecttolerance="10"
     gridtolerance="10"
     guidetolerance="10"
     inkscape:pageopacity="0"
     inkscape:pageshadow="2"
     inkscape:window-width="1218"
     inkscape:window-height="480"
     id="namedview5"
     showgrid="false"
     fit-margin-top="0"
     fit-margin-left="0"
     fit-margin-right="0"
     fit-margin-bottom="0"
     inkscape:zoom="2.36"
     inkscape:cx="42.084746"
     inkscape:cy="49.5"
     inkscape:window-x="51"
     inkscape:window-y="24"
     inkscape:window-maximized="0"
     inkscape:current-layer="Layer_1" /><path
     d="M 66.405636,0 5.5943636,0 C 2.5114545,0 0,2.51127 0,5.59418 L 0,66.40564 C 0,69.48873 2.5114545,72 5.5943636,72 l 30.9205454,0 14.289818,0 15.601091,0 C 69.488545,72 72,69.48873 72,66.40564 L 72,5.59418 C 72,2.51127 69.488545,0 66.405636,0 Z m -26.223818,68.36364 0,-26.54546 -8.909091,0 0,-6.54545 8.909091,0 0,-9.49018 c 0,-3.75 1.070727,-6.80546 3.125273,-8.83619 1.974,-1.95109 4.876909,-2.98236 8.339273,-2.98236 2.433272,0 4.535272,0.11945 6.171636,0.23636 l 0,5.76146 -3.720545,0.002 c -6.93091,0 -7.006728,5.14855 -7.006728,6.84055 l 0,8.46873 10.043637,0 -0.861273,6.54545 -9.182182,0 0,26.54546 -6.909091,0 z m 28.181818,-1.958 c 0,1.07781 -0.880363,1.958 -1.958,1.958 l -15.678363,0 0,-22.90909 8.743454,0 1.799273,-13.81819 -10.542727,0 0,-4.83236 c 0,-1.25491 0.204909,-2.03673 0.561454,-2.46036 C 51.704364,23.85 52.693455,23.59982 54.118,23.59982 l 7.336545,-0.003 0,-12.6371 -1.616,-0.20963 c -0.824727,-0.10964 -4.120181,-0.42218 -8.218363,-0.42218 -4.439637,0 -8.191091,1.39436 -10.860182,4.03254 -2.761091,2.72909 -4.214545,6.67891 -4.214545,11.42237 l 0,5.85381 -8.909091,0 0,13.81819 8.909091,0 0,22.90909 -30.9510914,0 c -1.0778181,0 -1.958,-0.88019 -1.958,-1.958 l 0,-60.81146 c 0,-1.07782 0.8801819,-1.95782 1.958,-1.95782 l 60.8112724,0 c 1.077637,0 1.958,0.88 1.958,1.95782 l 0,60.81146 z"
     id="path3"
     inkscape:connector-curvature="0" /></svg>